<mxfile host="app.diagrams.net" modified="2022-10-22T13:08:51.147Z" agent="5.0 (Windows NT 10.0; Win64; x64) AppleWebKit/537.36 (KHTML, like Gecko) Chrome/106.0.0.0 Safari/537.36 Edg/106.0.1370.47" etag="PqqxeFywacWsdMteiuBS" version="20.2.3" type="github">
  <diagram id="Fm1sxlU_5PA6M_dbFYdL" name="第 1 页">
    <mxGraphModel dx="1000" dy="600" grid="1" gridSize="10" guides="1" tooltips="1" connect="1" arrows="1" fold="1" page="1" pageScale="1" pageWidth="827" pageHeight="1169" math="0" shadow="0">
      <root>
        <mxCell id="0" />
        <mxCell id="1" parent="0" />
        <mxCell id="5I9bOGBrFUUclIIjExHC-7" value="" style="edgeStyle=orthogonalEdgeStyle;rounded=0;orthogonalLoop=1;jettySize=auto;html=1;" edge="1" parent="1" source="5I9bOGBrFUUclIIjExHC-1" target="5I9bOGBrFUUclIIjExHC-6">
          <mxGeometry relative="1" as="geometry" />
        </mxCell>
        <mxCell id="5I9bOGBrFUUclIIjExHC-1" value="点餐顾客" style="shape=umlActor;verticalLabelPosition=bottom;verticalAlign=top;html=1;outlineConnect=0;" vertex="1" parent="1">
          <mxGeometry x="100" y="50" width="30" height="60" as="geometry" />
        </mxCell>
        <mxCell id="5I9bOGBrFUUclIIjExHC-6" value="网上订餐" style="whiteSpace=wrap;html=1;verticalAlign=top;" vertex="1" parent="1">
          <mxGeometry x="57.5" y="150" width="115" height="30" as="geometry" />
        </mxCell>
        <mxCell id="5I9bOGBrFUUclIIjExHC-9" value="" style="endArrow=classic;html=1;rounded=0;exitX=0.5;exitY=1;exitDx=0;exitDy=0;entryX=0.5;entryY=0;entryDx=0;entryDy=0;entryPerimeter=0;" edge="1" parent="1" source="5I9bOGBrFUUclIIjExHC-6">
          <mxGeometry width="50" height="50" relative="1" as="geometry">
            <mxPoint x="172.5" y="220" as="sourcePoint" />
            <mxPoint x="115" y="220" as="targetPoint" />
          </mxGeometry>
        </mxCell>
        <mxCell id="5I9bOGBrFUUclIIjExHC-17" value="" style="edgeStyle=orthogonalEdgeStyle;rounded=0;orthogonalLoop=1;jettySize=auto;html=1;" edge="1" parent="1" source="5I9bOGBrFUUclIIjExHC-10" target="5I9bOGBrFUUclIIjExHC-16">
          <mxGeometry relative="1" as="geometry" />
        </mxCell>
        <mxCell id="5I9bOGBrFUUclIIjExHC-10" value="订单处理系统" style="ellipse;whiteSpace=wrap;html=1;aspect=fixed;" vertex="1" parent="1">
          <mxGeometry x="75" y="220" width="80" height="80" as="geometry" />
        </mxCell>
        <mxCell id="5I9bOGBrFUUclIIjExHC-16" value="订单确认&lt;br&gt;发送订单" style="whiteSpace=wrap;html=1;" vertex="1" parent="1">
          <mxGeometry x="215" y="230" width="65" height="60" as="geometry" />
        </mxCell>
        <mxCell id="5I9bOGBrFUUclIIjExHC-18" value="" style="endArrow=classic;html=1;rounded=0;" edge="1" parent="1">
          <mxGeometry width="50" height="50" relative="1" as="geometry">
            <mxPoint x="240" y="230" as="sourcePoint" />
            <mxPoint x="140" y="100" as="targetPoint" />
          </mxGeometry>
        </mxCell>
        <mxCell id="5I9bOGBrFUUclIIjExHC-19" value="" style="endArrow=classic;html=1;rounded=0;" edge="1" parent="1">
          <mxGeometry width="50" height="50" relative="1" as="geometry">
            <mxPoint x="150" y="100" as="sourcePoint" />
            <mxPoint x="250" y="230" as="targetPoint" />
          </mxGeometry>
        </mxCell>
        <mxCell id="5I9bOGBrFUUclIIjExHC-20" value="确认支付" style="text;html=1;strokeColor=none;fillColor=none;align=center;verticalAlign=middle;whiteSpace=wrap;rounded=0;" vertex="1" parent="1">
          <mxGeometry x="190" y="140" width="60" height="30" as="geometry" />
        </mxCell>
        <mxCell id="5I9bOGBrFUUclIIjExHC-21" value="" style="endArrow=classic;html=1;rounded=0;" edge="1" parent="1">
          <mxGeometry width="50" height="50" relative="1" as="geometry">
            <mxPoint x="280" y="260" as="sourcePoint" />
            <mxPoint x="310" y="260" as="targetPoint" />
          </mxGeometry>
        </mxCell>
        <mxCell id="5I9bOGBrFUUclIIjExHC-23" value="食堂系统" style="whiteSpace=wrap;html=1;aspect=fixed;" vertex="1" parent="1">
          <mxGeometry x="310" y="220" width="80" height="80" as="geometry" />
        </mxCell>
        <mxCell id="5I9bOGBrFUUclIIjExHC-24" value="" style="endArrow=classic;html=1;rounded=0;exitX=0.5;exitY=1;exitDx=0;exitDy=0;" edge="1" parent="1" source="5I9bOGBrFUUclIIjExHC-23">
          <mxGeometry width="50" height="50" relative="1" as="geometry">
            <mxPoint x="340" y="380" as="sourcePoint" />
            <mxPoint x="350" y="330" as="targetPoint" />
          </mxGeometry>
        </mxCell>
        <mxCell id="5I9bOGBrFUUclIIjExHC-25" value="仓储系统" style="rounded=0;whiteSpace=wrap;html=1;" vertex="1" parent="1">
          <mxGeometry x="290" y="330" width="120" height="40" as="geometry" />
        </mxCell>
        <mxCell id="5I9bOGBrFUUclIIjExHC-27" value="" style="endArrow=classic;html=1;rounded=0;exitX=0.5;exitY=1;exitDx=0;exitDy=0;" edge="1" parent="1" source="5I9bOGBrFUUclIIjExHC-25">
          <mxGeometry width="50" height="50" relative="1" as="geometry">
            <mxPoint x="330" y="430" as="sourcePoint" />
            <mxPoint x="350" y="400" as="targetPoint" />
          </mxGeometry>
        </mxCell>
        <mxCell id="5I9bOGBrFUUclIIjExHC-28" value="食堂后勤人员" style="shape=umlActor;verticalLabelPosition=bottom;verticalAlign=top;html=1;outlineConnect=0;" vertex="1" parent="1">
          <mxGeometry x="335" y="400" width="30" height="60" as="geometry" />
        </mxCell>
        <mxCell id="5I9bOGBrFUUclIIjExHC-30" value="" style="endArrow=classic;html=1;rounded=0;" edge="1" parent="1">
          <mxGeometry width="50" height="50" relative="1" as="geometry">
            <mxPoint x="390" y="260" as="sourcePoint" />
            <mxPoint x="440" y="260" as="targetPoint" />
          </mxGeometry>
        </mxCell>
        <mxCell id="5I9bOGBrFUUclIIjExHC-31" value="厨师" style="shape=umlActor;verticalLabelPosition=bottom;verticalAlign=top;html=1;outlineConnect=0;" vertex="1" parent="1">
          <mxGeometry x="440" y="230" width="30" height="60" as="geometry" />
        </mxCell>
        <mxCell id="5I9bOGBrFUUclIIjExHC-34" value="发送账单" style="text;html=1;strokeColor=none;fillColor=none;align=center;verticalAlign=middle;whiteSpace=wrap;rounded=0;" vertex="1" parent="1">
          <mxGeometry x="155" y="170" width="60" height="30" as="geometry" />
        </mxCell>
        <mxCell id="5I9bOGBrFUUclIIjExHC-36" value="" style="endArrow=classic;html=1;rounded=0;" edge="1" parent="1">
          <mxGeometry width="50" height="50" relative="1" as="geometry">
            <mxPoint x="450" y="220" as="sourcePoint" />
            <mxPoint x="370" y="160" as="targetPoint" />
          </mxGeometry>
        </mxCell>
        <mxCell id="5I9bOGBrFUUclIIjExHC-38" value="送餐人员" style="shape=umlActor;verticalLabelPosition=bottom;verticalAlign=top;html=1;outlineConnect=0;" vertex="1" parent="1">
          <mxGeometry x="335" y="90" width="30" height="60" as="geometry" />
        </mxCell>
        <mxCell id="5I9bOGBrFUUclIIjExHC-39" value="" style="endArrow=classic;html=1;rounded=0;" edge="1" parent="1">
          <mxGeometry width="50" height="50" relative="1" as="geometry">
            <mxPoint x="350" y="220" as="sourcePoint" />
            <mxPoint x="350" y="170" as="targetPoint" />
          </mxGeometry>
        </mxCell>
        <mxCell id="5I9bOGBrFUUclIIjExHC-40" value="配送信息" style="text;html=1;strokeColor=none;fillColor=none;align=center;verticalAlign=middle;whiteSpace=wrap;rounded=0;" vertex="1" parent="1">
          <mxGeometry x="330" y="190" width="60" height="30" as="geometry" />
        </mxCell>
        <mxCell id="5I9bOGBrFUUclIIjExHC-41" value="菜品" style="text;html=1;strokeColor=none;fillColor=none;align=center;verticalAlign=middle;whiteSpace=wrap;rounded=0;" vertex="1" parent="1">
          <mxGeometry x="390" y="170" width="60" height="30" as="geometry" />
        </mxCell>
        <mxCell id="5I9bOGBrFUUclIIjExHC-42" value="" style="endArrow=classic;html=1;rounded=0;" edge="1" parent="1">
          <mxGeometry width="50" height="50" relative="1" as="geometry">
            <mxPoint x="330" y="140" as="sourcePoint" />
            <mxPoint x="140" y="80" as="targetPoint" />
          </mxGeometry>
        </mxCell>
        <mxCell id="5I9bOGBrFUUclIIjExHC-43" value="" style="endArrow=classic;html=1;rounded=0;" edge="1" parent="1">
          <mxGeometry width="50" height="50" relative="1" as="geometry">
            <mxPoint x="240" y="290" as="sourcePoint" />
            <mxPoint x="240" y="330" as="targetPoint" />
          </mxGeometry>
        </mxCell>
        <mxCell id="5I9bOGBrFUUclIIjExHC-44" value="财务系统" style="rounded=1;whiteSpace=wrap;html=1;" vertex="1" parent="1">
          <mxGeometry x="200" y="330" width="65" height="40" as="geometry" />
        </mxCell>
        <mxCell id="5I9bOGBrFUUclIIjExHC-45" value="" style="endArrow=classic;html=1;rounded=0;" edge="1" parent="1">
          <mxGeometry width="50" height="50" relative="1" as="geometry">
            <mxPoint x="160" y="60" as="sourcePoint" />
            <mxPoint x="230" y="60" as="targetPoint" />
          </mxGeometry>
        </mxCell>
        <mxCell id="5I9bOGBrFUUclIIjExHC-47" value="" style="endArrow=classic;html=1;rounded=0;exitX=0.5;exitY=1;exitDx=0;exitDy=0;" edge="1" parent="1" source="5I9bOGBrFUUclIIjExHC-10">
          <mxGeometry width="50" height="50" relative="1" as="geometry">
            <mxPoint x="90" y="360" as="sourcePoint" />
            <mxPoint x="115" y="340" as="targetPoint" />
          </mxGeometry>
        </mxCell>
        <mxCell id="5I9bOGBrFUUclIIjExHC-48" value="订单日志系统" style="rounded=1;whiteSpace=wrap;html=1;" vertex="1" parent="1">
          <mxGeometry x="62.5" y="340" width="105" height="40" as="geometry" />
        </mxCell>
        <mxCell id="5I9bOGBrFUUclIIjExHC-52" value="" style="endArrow=classic;html=1;rounded=0;exitX=0.5;exitY=1;exitDx=0;exitDy=0;" edge="1" parent="1" source="5I9bOGBrFUUclIIjExHC-44">
          <mxGeometry width="50" height="50" relative="1" as="geometry">
            <mxPoint x="265" y="390" as="sourcePoint" />
            <mxPoint x="233" y="400" as="targetPoint" />
          </mxGeometry>
        </mxCell>
        <mxCell id="5I9bOGBrFUUclIIjExHC-53" value="财务人员" style="shape=umlActor;verticalLabelPosition=bottom;verticalAlign=top;html=1;outlineConnect=0;" vertex="1" parent="1">
          <mxGeometry x="217.5" y="400" width="30" height="60" as="geometry" />
        </mxCell>
        <mxCell id="5I9bOGBrFUUclIIjExHC-56" value="反馈信息" style="text;html=1;strokeColor=none;fillColor=none;align=center;verticalAlign=middle;whiteSpace=wrap;rounded=0;" vertex="1" parent="1">
          <mxGeometry x="157.5" y="40" width="60" height="30" as="geometry" />
        </mxCell>
        <mxCell id="5I9bOGBrFUUclIIjExHC-57" value="评分系统" style="rounded=0;whiteSpace=wrap;html=1;" vertex="1" parent="1">
          <mxGeometry x="230" y="40" width="80" height="45" as="geometry" />
        </mxCell>
        <mxCell id="5I9bOGBrFUUclIIjExHC-58" value="" style="endArrow=classic;html=1;rounded=0;" edge="1" parent="1" target="5I9bOGBrFUUclIIjExHC-59">
          <mxGeometry width="50" height="50" relative="1" as="geometry">
            <mxPoint x="310" y="62" as="sourcePoint" />
            <mxPoint x="360" y="62" as="targetPoint" />
          </mxGeometry>
        </mxCell>
        <mxCell id="5I9bOGBrFUUclIIjExHC-59" value="管理人员" style="shape=umlActor;verticalLabelPosition=bottom;verticalAlign=top;html=1;outlineConnect=0;" vertex="1" parent="1">
          <mxGeometry x="380" y="32.5" width="30" height="60" as="geometry" />
        </mxCell>
      </root>
    </mxGraphModel>
  </diagram>
</mxfile>
